<svg width="20" height="20" font-size='28' viewBox="0 0 14 14" fill="currentColor" xmlns="http://www.w3.org/2000/svg">
<path fill-rule="evenodd" clip-rule="evenodd" d="M13.6667 7.00016C13.6667 3.31826 10.6819 0.333496 7.00004 0.333496C3.31814 0.333496 0.333374 3.31826 0.333374 7.00016C0.333374 8.06578 0.583734 9.07426 1.02927 9.96875C1.09575 10.1022 1.10985 10.2385 1.07918 10.3532L0.709806 11.7337C0.456954 12.6787 1.32151 13.5432 2.26652 13.2904L3.64701 12.921C3.76167 12.8903 3.89797 12.9045 4.03145 12.9709C4.92595 13.4165 5.93442 13.6668 7.00004 13.6668C10.6819 13.6668 13.6667 10.6821 13.6667 7.00016ZM7.00004 1.26373C10.1682 1.26373 12.7365 3.83202 12.7365 7.00016C12.7365 10.1683 10.1682 12.7366 7.00004 12.7366C6.08155 12.7366 5.21474 12.5211 4.44618 12.1383C4.13772 11.9846 3.76886 11.9255 3.40657 12.0224L2.02608 12.3918C1.77254 12.4596 1.54059 12.2277 1.60843 11.9741L1.9778 10.5936C2.07473 10.2313 2.01557 9.86249 1.86193 9.55402C1.47913 8.78546 1.26361 7.91865 1.26361 7.00016C1.26361 3.83202 3.83189 1.26373 7.00004 1.26373Z" fill="#878787"/>
</svg>
