<svg width="20" height="20" viewBox="0 0 15.5 11.5" fill="currentColor" xmlns="http://www.w3.org/2000/svg">
<path d="M13.1214 1.45329C12.1335 1.01205 11.0741 0.686969 9.96643 0.500781C9.94626 0.497188 9.92611 0.506168 9.91572 0.524128C9.77947 0.760006 9.62856 1.06773 9.52287 1.30959C8.33151 1.13598 7.14626 1.13598 5.97933 1.30959C5.87363 1.06235 5.71723 0.760006 5.58037 0.524128C5.56998 0.506767 5.54983 0.497787 5.52966 0.500781C4.42261 0.686374 3.36322 1.01146 2.37469 1.45329C2.36613 1.45688 2.35879 1.46287 2.35393 1.47065C0.344482 4.39282 -0.205989 7.24317 0.0640538 10.0582C0.0652757 10.072 0.073218 10.0851 0.0842154 10.0935C1.40999 11.0412 2.69423 11.6166 3.95462 11.9979C3.97479 12.0039 3.99616 11.9967 4.009 11.9805C4.30714 11.5842 4.57291 11.1663 4.80079 10.7269C4.81423 10.7012 4.8014 10.6706 4.77391 10.6604C4.35236 10.5048 3.95095 10.315 3.56483 10.0995C3.53428 10.0821 3.53184 10.0396 3.55994 10.0193C3.64119 9.95998 3.72247 9.89832 3.80005 9.83605C3.81409 9.82469 3.83365 9.82229 3.85016 9.82947C6.38683 10.9568 9.13308 10.9568 11.6398 9.82947C11.6563 9.82169 11.6759 9.82409 11.6905 9.83546C11.7681 9.89772 11.8494 9.95998 11.9313 10.0193C11.9594 10.0396 11.9575 10.0821 11.927 10.0995C11.5409 10.3192 11.1395 10.5048 10.7173 10.6599C10.6898 10.67 10.6776 10.7012 10.691 10.7269C10.9238 11.1657 11.1896 11.5836 11.4822 11.9799C11.4944 11.9967 11.5164 12.0039 11.5366 11.9979C12.8031 11.6166 14.0873 11.0412 15.4131 10.0935C15.4247 10.0851 15.432 10.0725 15.4333 10.0588C15.7564 6.80432 14.8919 3.97734 13.1416 1.47124C13.1373 1.46287 13.13 1.45688 13.1214 1.45329ZM5.1796 8.34413C4.41588 8.34413 3.78661 7.66165 3.78661 6.82348C3.78661 5.98532 4.40368 5.30283 5.1796 5.30283C5.96161 5.30283 6.58479 5.99131 6.57257 6.82348C6.57257 7.66165 5.95549 8.34413 5.1796 8.34413ZM10.3299 8.34413C9.56625 8.34413 8.93697 7.66165 8.93697 6.82348C8.93697 5.98532 9.55402 5.30283 10.3299 5.30283C11.112 5.30283 11.7351 5.99131 11.7229 6.82348C11.7229 7.66165 11.112 8.34413 10.3299 8.34413Z" fill="#878787"/>
</svg>
