<svg width="20" height="20" viewBox="0 0 14 15" fill="currentColor" xmlns="http://www.w3.org/2000/svg">
<g clip-path="url(#clip0_4165_1255)">
<path d="M7.00007 3.95853C7.89098 3.95799 8.75333 4.27282 9.43432 4.84724L11.3418 3.03074C10.6096 2.35556 9.73005 1.86034 8.77303 1.58438C7.816 1.30843 6.80783 1.25933 5.82852 1.44099C4.84921 1.62266 3.92572 2.03007 3.13134 2.63091C2.33696 3.23176 1.69356 4.00948 1.2522 4.90237L3.40266 6.55991C3.65345 5.80364 4.13583 5.14545 4.78148 4.67857C5.42713 4.21169 6.20331 3.95978 7.00007 3.95853Z" fill="#878787"/>
<path d="M3.20837 7.75018C3.20891 7.34557 3.2745 6.94367 3.40262 6.55989L1.25216 4.90234C0.812287 5.78723 0.583374 6.76199 0.583374 7.75018C0.583374 8.73837 0.812287 9.71312 1.25216 10.598L3.40262 8.94047C3.2745 8.55668 3.20891 8.15479 3.20837 7.75018Z" fill="#878787"/>
<path d="M13.1542 6.5835H7.02917V9.2085H10.5C10.2935 9.95072 9.82048 10.5907 9.17147 11.0057L11.3053 12.6507C12.6688 11.4269 13.47 9.43687 13.1542 6.5835Z" fill="#878787"/>
<path d="M9.17065 11.0057C8.51121 11.3832 7.75942 11.5688 7.00007 11.5418C6.20331 11.5406 5.42713 11.2887 4.78148 10.8218C4.13583 10.3549 3.65345 9.6967 3.40266 8.94043L1.2522 10.598C1.78336 11.6687 2.60275 12.57 3.61818 13.2005C4.63362 13.831 5.80483 14.1656 7.00007 14.1668C8.57284 14.2095 10.1059 13.6694 11.3045 12.6501L9.17065 11.0057Z" fill="#878787"/>
</g>
<defs>
<clipPath id="clip0_4165_1255">
<rect width="14" height="14" fill="white" transform="translate(0 0.75)"/>
</clipPath>
</defs>
</svg>
