<svg width="106" height="28" viewBox="0 0 106 28" fill="currentColor" xmlns="http://www.w3.org/2000/svg">
<g clip-path="url(#clip0_6004_1454)">
<path d="M22.8922 0.0449524H5.22176C2.34002 0.0449524 0.00436401 2.36619 0.00436401 5.23014V22.7915C0.00436401 25.6554 2.34002 27.9767 5.22176 27.9767H22.8922C25.7739 27.9767 28.1096 25.6554 28.1096 22.7915V5.23014C28.1096 2.36619 25.7739 0.0449524 22.8922 0.0449524Z" fill="#F0C43F"/>
<path d="M22.6739 10.869V10.8708C22.6739 10.9088 22.6739 10.946 22.6722 10.9857C22.6705 11.0505 22.667 11.1162 22.6609 11.1819C22.6548 11.251 22.647 11.3202 22.6383 11.3884C22.6113 11.5915 22.5679 11.7911 22.5087 11.9865C22.4887 12.053 22.467 12.1195 22.4426 12.1844C21.9539 11.7764 21.3939 11.4489 20.7853 11.2234C20.8061 11.1093 20.8166 10.9918 20.8166 10.8716C20.8166 10.7316 20.8018 10.5968 20.7748 10.4646C20.7687 10.4326 20.7609 10.3998 20.7522 10.3678C20.7357 10.3039 20.7166 10.2416 20.6939 10.1811C20.6713 10.1198 20.6453 10.0593 20.6166 9.99966C20.4618 9.67818 20.2218 9.40423 19.9253 9.20546C19.7383 9.07929 19.527 8.98423 19.3009 8.92633C19.2687 8.91769 19.2357 8.90991 19.2035 8.90386C19.0731 8.87707 18.9366 8.86324 18.7966 8.86324C18.7287 8.86324 18.6609 8.8667 18.5948 8.87361C17.5739 8.97386 16.7766 9.82941 16.7766 10.8716C16.7766 10.9961 16.7879 11.1179 16.8105 11.2355C16.2052 11.4636 15.6479 11.792 15.1626 12.2016C15.0487 11.8966 14.9731 11.5785 14.94 11.2536C14.94 11.2441 14.9383 11.2346 14.9374 11.2242C14.9305 11.1499 14.9252 11.0756 14.9226 11.0021V10.9857C14.9226 10.9468 14.9209 10.9088 14.9209 10.8708V10.869C14.9209 10.729 14.9279 10.5908 14.9435 10.4542C14.9487 10.4058 14.9548 10.3583 14.9609 10.309C14.9948 10.0774 15.0496 9.85188 15.1244 9.63497C15.1418 9.58225 15.1609 9.52954 15.1818 9.47769C15.2426 9.32127 15.3139 9.17003 15.3939 9.02398C15.4226 8.97127 15.4531 8.91941 15.4844 8.86843C15.5166 8.81657 15.5487 8.76645 15.5826 8.71719C15.6183 8.6662 15.6548 8.61435 15.6913 8.56509C15.7296 8.51583 15.7661 8.46917 15.8052 8.42077L15.807 8.41904C15.8635 8.35077 15.9235 8.28423 15.9844 8.22028C16.0461 8.15633 16.1096 8.0941 16.1757 8.03447C16.2409 7.97398 16.3079 7.91694 16.3783 7.86164C16.4131 7.83485 16.4487 7.80719 16.4852 7.77954C16.8079 7.54188 17.1687 7.35176 17.5583 7.22126C17.6192 7.20139 17.6792 7.18238 17.7409 7.16423C17.8009 7.14781 17.8618 7.13225 17.9226 7.11756H17.927C18.0835 7.08213 18.2444 7.0562 18.4061 7.03978C18.4383 7.03633 18.4713 7.03373 18.5044 7.03114C18.6018 7.02423 18.7018 7.01991 18.8018 7.01991C19.0679 7.01991 19.3287 7.0467 19.58 7.09769C19.6426 7.11065 19.7044 7.12534 19.7661 7.14089C19.8279 7.15645 19.8879 7.17287 19.9496 7.19275C20.04 7.2204 20.1296 7.25238 20.2174 7.28694C20.2557 7.30164 20.2931 7.31719 20.3305 7.33361C20.3705 7.35003 20.4105 7.36818 20.4487 7.38633C20.8548 7.57731 21.2218 7.83657 21.5348 8.14768C21.6 8.2125 21.6644 8.28077 21.7253 8.35077C21.7453 8.37411 21.7661 8.3983 21.787 8.4225C21.8209 8.46312 21.8531 8.5046 21.8844 8.54608C22.0026 8.70077 22.1096 8.86411 22.2035 9.03694C22.2331 9.09139 22.2626 9.14583 22.2887 9.20114C22.2887 9.20373 22.2913 9.20633 22.2913 9.20633C22.3165 9.25645 22.34 9.30917 22.3618 9.36102C22.3922 9.43102 22.4209 9.50188 22.4461 9.57448C22.4548 9.59522 22.4626 9.61596 22.4687 9.6367C22.5426 9.85361 22.5983 10.0783 22.6313 10.3108C22.6374 10.36 22.6444 10.4076 22.6487 10.456C22.6652 10.5925 22.6722 10.7299 22.6722 10.8708L22.6739 10.869Z" fill="black"/>
<path d="M13.0696 17.1431C13.0696 19.2647 11.3305 20.981 9.20438 20.981C7.07829 20.981 5.33307 19.2647 5.33307 17.1431H7.18612C7.18612 18.2467 8.09134 19.1489 9.20438 19.1489C10.3174 19.1489 11.2079 18.2467 11.2079 17.1431H13.0696Z" fill="black"/>
<path d="M9.15916 7.0209C6.66438 7.0209 4.62699 9.03621 4.62699 11.5251C4.62699 14.014 6.66438 16.0103 9.15916 16.0103C11.6539 16.0103 13.6818 14.0045 13.6818 11.5251C13.6818 9.04571 11.6539 7.0209 9.15916 7.0209ZM9.15916 14.1652C7.6809 14.1652 6.48351 12.9778 6.48351 11.5242C6.48351 10.0707 7.68177 8.86509 9.15916 8.86509C10.6366 8.86509 11.8261 10.056 11.8261 11.5242C11.8261 12.9925 10.6313 14.1652 9.15916 14.1652Z" fill="black"/>
<path d="M18.8139 11.996C16.3192 11.996 14.2818 14.0113 14.2818 16.5002C14.2818 18.989 16.3192 20.9853 18.8139 20.9853C21.3087 20.9853 23.3366 18.9795 23.3366 16.5002C23.3366 14.0208 21.3087 11.996 18.8139 11.996ZM18.8139 19.1403C17.3357 19.1403 16.1383 17.9529 16.1383 16.4993C16.1383 15.0457 17.3365 13.8402 18.8139 13.8402C20.2913 13.8402 21.4809 15.031 21.4809 16.4993C21.4809 17.9676 20.2861 19.1403 18.8139 19.1403Z" fill="black"/>
<path d="M68.5748 7.31284H66.8357V20.6932H68.5748V7.31284Z" fill="black"/>
<path d="M82.1104 18.2717L73.7922 7.31889H73.2591V7.31284H71.52V20.6932H73.2591V9.82333L81.5731 20.6872H82.1104V20.6932H83.8496V7.31284H82.1104V18.2717Z" fill="black"/>
<path d="M57.4913 7.02074C53.6183 7.02074 50.4557 10.1491 50.4557 14.013C50.4557 17.8768 53.6183 20.9767 57.4913 20.9767C61.3644 20.9767 64.5122 17.8621 64.5122 14.013C64.5122 10.1638 61.3644 7.02074 57.4913 7.02074ZM57.493 19.142C54.6252 19.142 52.2991 16.8372 52.2991 14.0164C52.2991 11.1957 54.6243 8.85457 57.493 8.85457C60.3617 8.85457 62.6687 11.1654 62.6687 14.0164C62.6687 16.8674 60.3496 19.142 57.493 19.142Z" fill="black"/>
<path d="M42.1896 19.142C39.3217 19.142 36.9957 16.8372 36.9957 14.0164C36.9957 11.1957 39.3209 8.85457 42.1896 8.85457C44.2739 8.85457 46.0713 10.086 46.8913 11.8585H48.8678C47.9548 9.04987 45.307 7.01988 42.1878 7.01988C38.3148 7.01988 35.1522 10.1483 35.1522 14.0121C35.1522 17.8759 38.3148 20.9758 42.1878 20.9758C45.3148 20.9758 47.9678 18.9449 48.8748 16.1372H46.8983C46.0817 17.9053 44.28 19.142 42.1896 19.142Z" fill="black"/>
<path d="M91.0713 7.02074C88.5765 7.02074 86.5391 9.03605 86.5391 11.5249C86.5391 14.0138 88.5765 16.0101 91.0713 16.0101C91.4243 16.0101 91.767 15.9686 92.0974 15.8926L89.8522 20.6932H91.7652L95.0922 13.5783C95.4122 12.963 95.5939 12.2647 95.5939 11.5241C95.5939 9.03519 93.5661 7.02074 91.0713 7.02074ZM88.3957 11.5241C88.3957 10.0549 89.5939 8.86494 91.0713 8.86494C92.5487 8.86494 93.7383 10.0558 93.7383 11.5241C93.7383 12.9923 92.5435 14.1651 91.0713 14.1651C89.5991 14.1651 88.3957 12.9777 88.3957 11.5241Z" fill="black"/>
<path d="M104.022 13.1021C104.713 12.4574 105.14 11.5699 105.14 10.5907C105.14 8.61864 103.583 7.02074 101.45 7.02074C99.3157 7.02074 97.7591 8.6195 97.7591 10.5907C97.7591 11.5716 98.187 12.4591 98.88 13.1047C97.7974 13.9093 96.9226 15.1753 96.9226 16.6012C96.9226 19.0244 98.96 20.9853 101.455 20.9853C103.95 20.9853 105.977 19.0244 105.977 16.6012C105.977 15.1736 105.103 13.9058 104.022 13.1021ZM101.45 8.7837C102.504 8.7837 103.359 9.63321 103.359 10.6815C103.359 11.7298 102.504 12.5793 101.45 12.5793C100.395 12.5793 99.54 11.7298 99.54 10.6815C99.54 9.63321 100.395 8.7837 101.45 8.7837ZM101.454 19.142C99.9757 19.142 98.7765 17.9442 98.7765 16.4785C98.7765 15.0128 99.9757 13.7969 101.454 13.7969C102.932 13.7969 104.122 14.9973 104.122 16.4785C104.122 17.9598 102.926 19.142 101.454 19.142Z" fill="black"/>
</g>
<defs>
<clipPath id="clip0_6004_1454">
<rect width="106" height="28" fill="white"/>
</clipPath>
</defs>
</svg>
