<svg width="40" height="40" viewBox="0 0 30 30" fill="none" xmlns="http://www.w3.org/2000/svg">
<path d="M29.6738 18.1099C30.2888 15.2087 30.0304 12.1879 28.9305 9.4345C27.8305 6.68078 25.9392 4.31284 23.4951 2.63367C21.0506 0.954496 18.1633 0.0388976 15.1976 0.00135778C12.2328 -0.0385782 9.322 0.803272 6.83415 2.41881C4.34657 4.03436 2.393 6.35171 1.22112 9.07561C0.0492361 11.7998 -0.289011 14.8112 0.248988 17.7295C0.787254 20.6456 2.17859 23.3359 4.2459 25.4621C6.31293 27.5904 8.96458 29.054 11.8647 29.6732C15.7588 30.4988 19.8218 29.7454 23.1608 27.5779C26.5004 25.4081 28.8426 22.0042 29.6738 18.1099ZM6.34143 13.1477C6.70578 11.4361 7.57004 9.8698 8.82448 8.64643C10.0789 7.42545 11.6671 6.60384 13.3887 6.28382C15.11 5.96593 16.887 6.16507 18.4957 6.85517C20.1036 7.54766 21.4707 8.70127 22.4236 10.1685C23.3763 11.6384 23.8725 13.3567 23.8488 15.1065C23.8253 16.8565 23.2831 18.5623 22.2904 20.0055C21.2986 21.4467 19.9009 22.5636 18.2744 23.2129C16.6484 23.8599 14.8661 24.0127 13.154 23.6485C10.8609 23.1536 8.85644 21.7712 7.57883 19.8035C6.30068 17.8378 5.8535 15.4438 6.33451 13.1464L6.34143 13.1477Z" fill="#B0B0B0"/>
<path d="M13.1154 10.7031C13.1154 9.72584 13.9076 8.93359 14.8849 8.93359H15.1132C16.0904 8.93359 16.8827 9.72584 16.8827 10.7031V19.2969C16.8827 20.2742 16.0904 21.0664 15.1132 21.0664H14.8849C13.9076 21.0664 13.1154 20.2742 13.1154 19.2969V10.7031Z" fill="#B0B0B0"/>
<circle cx="15.0005" cy="11.9668" r="3.0332" fill="#B0B0B0"/>
</svg>
