<svg width="40" height="40" viewBox="0 0 29 29" fill="none" xmlns="http://www.w3.org/2000/svg">
<path d="M20.7385 6.4327L6.44141 20.7246L8.26193 22.5445L22.559 8.25256L20.7385 6.4327Z" fill="#B0B0B0"/>
<path d="M8.26193 6.43405L6.44141 8.25391L20.7385 22.5458L22.559 20.726L8.26193 6.43405Z" fill="#B0B0B0"/>
<path d="M28.6847 17.5063C29.2792 14.7017 29.0294 11.7817 27.9661 9.12001C26.9028 6.45809 25.0746 4.16908 22.7119 2.54588C20.349 0.922679 17.5579 0.037601 14.6911 0.00131252C11.825 -0.0372922 9.01127 0.776496 6.60635 2.33819C4.20169 3.89988 2.31323 6.13998 1.18041 8.77309C0.0475948 11.4064 -0.279377 14.3175 0.240689 17.1385C0.761012 19.9574 2.10597 22.5581 4.10437 24.6134C6.1025 26.6708 8.66576 28.0855 11.4692 28.6841C15.2335 29.4822 19.161 28.7539 22.3888 26.6587C25.6171 24.5611 27.8812 21.2707 28.6847 17.5063ZM6.13005 12.7095C6.48225 11.0549 7.3177 9.54081 8.53033 8.35821C9.74296 7.17794 11.2782 6.38371 12.9424 6.07436C14.6064 5.76706 16.3241 5.95957 17.8792 6.62666C19.4334 7.29607 20.755 8.41123 21.6762 9.82957C22.5971 11.2505 23.0767 12.9115 23.0538 14.6029C23.0312 16.2946 22.507 17.9435 21.5474 19.3387C20.5887 20.7318 19.2375 21.8115 17.6652 22.4392C16.0934 23.0646 14.3705 23.2123 12.7156 22.8602C10.4989 22.3818 8.56123 21.0455 7.3262 19.1434C6.09066 17.2432 5.65839 14.929 6.12336 12.7082L6.13005 12.7095Z" fill="#B0B0B0"/>
<path fill-rule="evenodd" clip-rule="evenodd" d="M5.02686 20.7246L20.7384 5.01874L23.9734 8.25256L8.26185 23.9584L5.02686 20.7246ZM20.7385 6.4327L22.559 8.25256L8.26193 22.5445L6.44141 20.7246L20.7385 6.4327Z" fill="#B0B0B0"/>
<path fill-rule="evenodd" clip-rule="evenodd" d="M5.02686 8.25391L8.26185 5.02009L23.9734 20.726L20.7384 23.9598L5.02686 8.25391ZM8.26193 6.43405L22.559 20.726L20.7385 22.5458L6.44141 8.25391L8.26193 6.43405Z" fill="#B0B0B0"/>
</svg>
