<svg width="40" height="40" viewBox="0 0 27 32" fill="none" xmlns="http://www.w3.org/2000/svg">
<path d="M13.5004 32C12.9475 32 12.3902 31.87 11.8894 31.6246C7.21215 29.3302 3.82944 26.699 1.83474 23.8041C0.148007 21.3562 0.00407359 19.4875 0 18.973V18.9566V6.95117C0 5.28221 1.0461 3.82431 2.60302 3.32334L12.3834 0.176199C13.1137 -0.0587329 13.8858 -0.0587329 14.6163 0.176199L24.397 3.32362C25.9539 3.82458 27 5.28249 27 6.95145V18.9652C26.9962 19.4811 26.8525 21.3553 25.1655 23.8041C23.1708 26.6993 19.7878 29.3305 15.1106 31.6246C14.6101 31.87 14.0531 32 13.5004 32ZM6.00447 18.7705C6.04629 18.9494 6.22281 19.5514 6.84987 20.4192C7.42262 21.2115 8.22077 22.0235 9.22206 22.8327C10.4023 23.7863 11.8381 24.7105 13.4996 25.5869C14.6953 24.9554 15.7838 24.2934 16.7449 23.613C18.2361 22.5569 19.3816 21.4822 20.1501 20.4192C20.7775 19.5511 20.954 18.9491 20.9955 18.7705V8.66568L13.5001 6.2536L6.00474 8.6654L6.00447 18.7705Z" fill="#B0B0B0"/>
</svg>
